HIERARCHY
ROOT joint_Root
{
	OFFSET 0.0 0.0 0.0
	CHANNELS 6 Xposition Yposition Zposition Zrotation Xrotation Yrotation 
	JOINT Hips
	{
		OFFSET -17.1583 93.1646 452.98
		CHANNELS 6 Xposition Yposition Zposition Zrotation Xrotation Yrotation 
		JOINT Spine
		{
			OFFSET 15.7357 0.0 0.0
			CHANNELS 6 Xposition Yposition Zposition Zrotation Xrotation Yrotation 
			JOINT Chest
			{
				OFFSET 8.98455 -0.406207 0.0
				CHANNELS 6 Xposition Yposition Zposition Zrotation Xrotation Yrotation 
				JOINT Neck
				{
					OFFSET 16.3773 0.0 0.0
					CHANNELS 6 Xposition Yposition Zposition Zrotation Xrotation Yrotation 
					JOINT Head
					{
						OFFSET 6.45672 0.0 0.0
						CHANNELS 6 Xposition Yposition Zposition Zrotation Xrotation Yrotation 
						End Site
						{
							OFFSET 0.0 0.0 0.0
						}
					}
				}
				JOINT Shoulder_L
				{
					OFFSET 12.9942 -0.242716 4.98039
					CHANNELS 6 Xposition Yposition Zposition Zrotation Xrotation Yrotation 
					JOINT UpperArm_L
					{
						OFFSET 5.34809 0.0 0.0
						CHANNELS 6 Xposition Yposition Zposition Zrotation Xrotation Yrotation 
						JOINT LowerArm_L
						{
							OFFSET 24.3286 1.87007e-05 0.0
							CHANNELS 6 Xposition Yposition Zposition Zrotation Xrotation Yrotation 
							JOINT Hand_L
							{
								OFFSET 22.2916 0.0 0.0
								CHANNELS 6 Xposition Yposition Zposition Zrotation Xrotation Yrotation 
								End Site
								{
									OFFSET 0.0 0.0 0.0
								}
							}
						}
					}
				}
				JOINT Shoulder_R
				{
					OFFSET 12.9945 -0.242716 -4.98039
					CHANNELS 6 Xposition Yposition Zposition Zrotation Xrotation Yrotation 
					JOINT UpperArm_R
					{
						OFFSET -5.34813 0.0 0.0
						CHANNELS 6 Xposition Yposition Zposition Zrotation Xrotation Yrotation 
						JOINT LowerArm_R
						{
							OFFSET -24.3289 0.000322201 0.0
							CHANNELS 6 Xposition Yposition Zposition Zrotation Xrotation Yrotation 
							JOINT Hand_R
							{
								OFFSET -22.2915 -0.000108084 0.0
								CHANNELS 6 Xposition Yposition Zposition Zrotation Xrotation Yrotation 
								End Site
								{
									OFFSET 0.0 0.0 0.0
								}
							}
						}
					}
				}
			}
		}
		JOINT UpperLeg_L
		{
			OFFSET -2.19248 -6.46944 0.0
			CHANNELS 6 Xposition Yposition Zposition Zrotation Xrotation Yrotation 
			JOINT LowerLeg_L
			{
				OFFSET 39.0811 0.0 -1.23785e-05
				CHANNELS 6 Xposition Yposition Zposition Zrotation Xrotation Yrotation 
				JOINT Foot_L
				{
					OFFSET 40.9854 0.0 -1.26872e-05
					CHANNELS 6 Xposition Yposition Zposition Zrotation Xrotation Yrotation 
					JOINT Toes_L
					{
						OFFSET 11.7543 0.0 0.0
						CHANNELS 6 Xposition Yposition Zposition Zrotation Xrotation Yrotation 
						End Site
						{
							OFFSET 0.0 0.0 0.0
						}
					}
				}
			}
		}
		JOINT UpperLeg_R
		{
			OFFSET -2.19251 6.46944 0.0
			CHANNELS 6 Xposition Yposition Zposition Zrotation Xrotation Yrotation 
			JOINT LowerLeg_R
			{
				OFFSET -39.0811 -0.00228153 -0.0401928
				CHANNELS 6 Xposition Yposition Zposition Zrotation Xrotation Yrotation 
				JOINT Foot_R
				{
					OFFSET -40.9854 0.0 0.0
					CHANNELS 6 Xposition Yposition Zposition Zrotation Xrotation Yrotation 
					JOINT Toes_R
					{
						OFFSET -11.7543 0.0 0.0
						CHANNELS 6 Xposition Yposition Zposition Zrotation Xrotation Yrotation 
						End Site
						{
							OFFSET 0.0 0.0 0.0
						}
					}
				}
			}
		}
	}
}
MOTION
Frames:	6
Frame Time:	0.0333333
0.000000 0.000000 0.000000 0.000000 0.000000 -0.000000 -2.243750 93.064600 -1.113080 86.771400 2.203350 4.748570 15.735700 0.000005 -0.000001 86.434100 86.537500 -92.057700 8.984550 -0.406207 -0.000000 -0.830032 -0.009760 -11.242000 16.377300 -0.000001 -0.000001 5.688820 -0.560146 -10.834600 6.456720 -0.000001 -0.000000 -13.482100 5.792400 -21.350000 12.994200 -0.242716 4.980390 -93.189100 8.605580 -69.576500 5.348090 -0.000007 -0.000001 -57.117800 -2.810000 -2.869850 24.328600 0.000019 0.000005 12.741700 28.157300 -25.602800 22.291600 -0.000001 0.000005 4.563990 4.917040 9.036250 12.994500 -0.242716 -4.980390 93.881100 -6.964020 -60.771400 -5.348130 -0.000001 -0.000004 -49.668500 -62.590300 -87.641200 -24.328900 0.000322 -0.000009 -0.048817 -18.490300 -0.150656 -22.291500 -0.000108 -0.000004 38.942000 5.424110 -3.738300 -2.192480 -6.469440 -0.000000 -170.214000 -7.224150 0.907328 39.081100 -0.000007 -0.000012 -0.022490 0.072785 17.170600 40.985400 -0.000006 -0.000013 -1.063500 18.207900 -68.455700 11.754300 -0.000000 0.000003 -0.001631 0.191631 -8.802590 -2.192510 6.469440 -0.000001 177.899000 8.266710 -176.032000 -39.081100 -0.002282 -0.040193 -0.006810 0.046525 12.300800 -40.985400 0.000008 0.000006 -6.982080 11.846400 -65.731500 -11.754300 -0.000006 -0.000006 -0.007980 0.255534 -6.195540
0.000000 0.000000 0.000000 0.000000 0.000000 -0.000000 -2.263840 93.075500 -1.170560 86.772100 2.235090 4.716390 15.735700 0.000005 -0.000001 86.323400 86.532100 -91.879100 8.984550 -0.406207 -0.000000 -0.821683 -0.029269 -11.106600 16.377300 -0.000001 -0.000001 5.841860 -0.670252 -10.673200 6.456720 -0.000001 -0.000000 -13.463700 5.655000 -21.257200 12.994200 -0.242716 4.980390 -93.180600 8.594420 -69.602400 5.348090 -0.000007 -0.000001 -57.213600 -2.984050 -2.520160 24.328600 0.000019 0.000005 12.789400 28.206200 -25.653700 22.291600 -0.000001 0.000005 4.260060 4.917360 9.029830 12.994500 -0.242716 -4.980390 93.880900 -6.945650 -60.708000 -5.348130 -0.000001 -0.000004 -49.612700 -62.577500 -87.693900 -24.328900 0.000322 -0.000009 -0.001070 -18.545500 -0.000103 -22.291500 -0.000108 -0.000004 38.744200 5.419430 -3.580040 -2.192480 -6.469440 -0.000000 -170.208000 -7.277600 0.841875 39.081100 -0.000007 -0.000012 -0.023353 0.075780 17.127700 40.985400 -0.000006 -0.000013 -1.087260 18.245200 -68.401600 11.754300 -0.000000 0.000003 -0.001806 0.193888 -8.710820 -2.192510 6.469440 -0.000001 177.925000 8.195220 -176.071000 -39.081100 -0.002282 -0.040193 -0.006723 0.046404 12.230000 -40.985400 0.000008 0.000006 -6.995710 11.778100 -65.663800 -11.754300 -0.000006 -0.000006 -0.007819 0.254219 -6.249270
0.000000 0.000000 0.000000 0.000000 0.000000 -0.000000 -2.266180 93.085900 -1.223320 86.813800 2.283750 4.678270 15.735700 0.000005 -0.000001 86.126700 86.533600 -91.628900 8.984550 -0.406207 -0.000000 -0.827942 -0.056502 -10.999800 16.377300 -0.000001 -0.000001 5.974080 -0.763998 -10.503900 6.456720 -0.000001 -0.000000 -13.406600 5.559890 -21.211700 12.994200 -0.242716 4.980390 -93.194700 8.603210 -69.538500 5.348090 -0.000007 -0.000001 -57.347100 -3.101590 -2.116580 24.328600 0.000019 0.000005 12.779400 28.205900 -25.635900 22.291600 -0.000001 0.000005 3.914090 4.913060 9.116420 12.994500 -0.242716 -4.980390 93.902600 -6.955650 -60.606400 -5.348130 -0.000001 -0.000004 -50.049400 -62.539700 -88.120700 -24.328900 0.000322 -0.000009 -0.001040 -18.704300 -0.000104 -22.291500 -0.000108 -0.000004 38.522900 5.419020 -3.566030 -2.192480 -6.469440 -0.000000 -170.250000 -7.325150 0.806884 39.081100 -0.000007 -0.000012 -0.023498 0.076679 17.037100 40.985400 -0.000006 -0.000013 -1.096870 18.328000 -68.332000 11.754300 -0.000000 0.000003 -0.001750 0.193177 -8.739720 -2.192510 6.469440 -0.000001 177.892000 8.257780 -176.137000 -39.081100 -0.002282 -0.040193 -0.006147 0.043783 12.219800 -40.985400 0.000008 0.000006 -6.934250 11.771900 -65.657100 -11.754300 -0.000006 -0.000006 -0.007907 0.254938 -6.219920
0.000000 0.000000 0.000000 0.000000 0.000000 -0.000000 -2.269310 93.089200 -1.263580 86.828400 2.391770 4.634200 15.735700 0.000005 -0.000001 85.634600 86.546100 -91.071600 8.984550 -0.406207 -0.000000 -0.860470 -0.117306 -10.870000 16.377300 -0.000001 -0.000001 6.169950 -0.886954 -10.392100 6.456720 -0.000001 -0.000000 -13.430200 5.481730 -21.155600 12.994200 -0.242716 4.980390 -93.208000 8.613570 -69.482600 5.348090 -0.000007 -0.000001 -57.561400 -3.398140 -1.672160 24.328600 0.000019 0.000005 12.719900 28.377900 -25.404100 22.291600 -0.000001 0.000005 3.775160 4.922570 8.924420 12.994500 -0.242716 -4.980390 93.911400 -6.966530 -60.589000 -5.348130 -0.000001 -0.000004 -50.226000 -62.601600 -88.349400 -24.328900 0.000322 -0.000009 -0.001072 -18.878700 -0.000105 -22.291500 -0.000108 -0.000004 38.170300 5.414520 -3.415290 -2.192480 -6.469440 -0.000000 -170.274000 -7.322040 0.705417 39.081100 -0.000007 -0.000012 -0.023661 0.077179 17.043700 40.985400 -0.000006 -0.000013 -1.092350 18.402400 -68.304900 11.754300 -0.000000 0.000003 -0.001945 0.195654 -8.639020 -2.192510 6.469440 -0.000001 177.913000 8.214560 -176.215000 -39.081100 -0.002282 -0.040193 -0.005589 0.041125 12.242900 -40.985400 0.000008 0.000006 -6.901460 11.620600 -65.684900 -11.754300 -0.000006 -0.000006 -0.007940 0.255207 -6.208920
0.000000 0.000000 0.000000 0.000000 0.000000 -0.000000 -2.269690 93.097600 -1.297180 86.896800 2.520940 4.582660 15.735700 0.000005 -0.000001 85.562800 86.549400 -90.959400 8.984550 -0.406207 -0.000000 -0.868572 -0.128067 -10.789200 16.377300 -0.000001 -0.000001 6.301590 -1.000130 -10.324700 6.456720 -0.000001 -0.000000 -13.414900 5.295070 -21.046600 12.994200 -0.242716 4.980390 -93.218900 8.630690 -69.455900 5.348090 -0.000007 -0.000001 -57.790000 -3.384840 -1.191660 24.328600 0.000019 0.000005 12.712300 28.493600 -25.307700 22.291600 -0.000001 0.000005 3.744850 4.923820 8.899340 12.994500 -0.242716 -4.980390 93.942600 -6.985960 -60.461300 -5.348130 -0.000001 -0.000004 -50.278500 -62.700300 -88.435600 -24.328900 0.000322 -0.000009 -0.001072 -19.006600 -0.000106 -22.291500 -0.000108 -0.000004 37.906000 5.417930 -3.529400 -2.192480 -6.469440 -0.000000 -170.342000 -7.378170 0.662856 39.081100 -0.000007 -0.000012 -0.024367 0.080065 16.926600 40.985400 -0.000006 -0.000013 -1.086340 18.579300 -68.187800 11.754300 -0.000000 0.000003 -0.001742 0.193066 -8.744220 -2.192510 6.469440 -0.000001 177.865000 8.265920 -176.275000 -39.081100 -0.002282 -0.040193 -0.004743 0.037205 12.250000 -40.985400 0.000008 0.000006 -6.823280 11.527700 -65.720200 -11.754300 -0.000006 -0.000006 -0.007825 0.254263 -6.247480
0.000000 0.000000 0.000000 0.000000 0.000000 -0.000000 -2.252390 93.106900 -1.327510 86.950300 2.670840 4.534980 15.735700 0.000005 -0.000001 85.303700 86.570600 -90.650500 8.984550 -0.406207 -0.000000 -0.915155 -0.157244 -10.690100 16.377300 -0.000001 -0.000001 6.405810 -1.114610 -10.226100 6.456720 -0.000001 -0.000000 -13.376400 5.195030 -21.021400 12.994200 -0.242716 4.980390 -93.229400 8.651760 -69.439600 5.348090 -0.000007 -0.000001 -58.060100 -3.466180 -0.638014 24.328600 0.000019 0.000005 12.706500 28.658300 -25.180700 22.291600 -0.000001 0.000005 3.595640 4.925390 8.867450 12.994500 -0.242716 -4.980390 93.961700 -7.001940 -60.398000 -5.348130 -0.000001 -0.000004 -50.347400 -62.815800 -88.531100 -24.328900 0.000322 -0.000009 -0.001071 -18.746300 -0.000104 -22.291500 -0.000108 -0.000004 37.831300 5.413860 -3.393530 -2.192480 -6.469440 -0.000000 -170.393000 -7.405630 0.617673 39.081100 -0.000007 -0.000012 -0.025058 0.082845 16.828400 40.985400 -0.000006 -0.000013 -1.078460 18.770700 -68.143900 11.754300 -0.000000 0.000003 -0.001852 0.194471 -8.687090 -2.192510 6.469440 -0.000001 177.841000 8.123020 -176.312000 -39.081100 -0.002282 -0.040193 -0.004288 0.035190 12.222800 -40.985400 0.000008 0.000006 -6.865450 11.260600 -65.778600 -11.754300 -0.000006 -0.000006 -0.007964 0.255408 -6.200690
